# xmcd
#
# Track frame offsets:
#	150
#	14250
#	31827
#	49118
#	67539
#	87974
#	100497
#
# Disc length: 1583 seconds
#
# Revision: 1
# Processed by: cddbd v1.5.2PL0 Copyright (c) Steve Scherf et al.
# Submitted via: audiograbber 1.83.01
#
DISCID=49062d07
DTITLE=Kesälesket - Seikkailee Jälleen [CDr)
DYEAR=2001
DGENRE=Pop
TTITLE0=Metrin Halolla Ohtaan
TTITLE1=No - Muijaa Ei Oo
TTITLE2=Punaisten Lyhtyjen Hotelli
TTITLE3=Virtaa Joet, Vuoret Nään
TTITLE4=Kimi Ool Joor Lavin
TTITLE5=Äkkii Ryssiin Taas
TTITLE6=Kotimajakka
EXTD=TR.
EXTT0=
EXTT1=
EXTT2=
EXTT3=
EXTT4=
EXTT5=
EXTT6=
PLAYORDER=
